<?xml version="1.0" encoding="UTF-8"?>
<svg viewBox="0 0 128 128" xmlns="http://www.w3.org/2000/svg" xmlns:xlink="http://www.w3.org/1999/xlink">
 <defs>
  <linearGradient id="a">
   <stop stop-color="#a2a2a2" offset="0"/>
   <stop stop-color="#fff" offset="1"/>
  </linearGradient>
  <linearGradient id="b">
   <stop stop-color="#cfcfcf" offset="0"/>
   <stop stop-color="#fff" offset="1"/>
  </linearGradient>
  <linearGradient id="c">
   <stop stop-color="#fff" offset="0"/>
   <stop stop-color="#fff" stop-opacity="0" offset="1"/>
  </linearGradient>
  <linearGradient id="k" x1="17.523" x2="4.275" y1="39.45" y2="26.18" gradientUnits="userSpaceOnUse" xlink:href="#b"/>
  <linearGradient id="j" x1="33.525" x2="17.175" y1="37.95" y2="24.6" gradientUnits="userSpaceOnUse" xlink:href="#b"/>
  <linearGradient id="i" x1="48.352" x2="32.973" y1="41.503" y2="27.403" gradientUnits="userSpaceOnUse" xlink:href="#b"/>
  <linearGradient id="h" x1="9.6" x2="9.75" y1="49.725" y2="40.65" gradientUnits="userSpaceOnUse" xlink:href="#a"/>
  <linearGradient id="g" x1="27.3" x2="27.333" y1="51.853" y2="41.278" gradientUnits="userSpaceOnUse" xlink:href="#a"/>
  <linearGradient id="f" x1="40.475" x2="40.245" y1="52.667" y2="41.342" gradientUnits="userSpaceOnUse" xlink:href="#a"/>
  <linearGradient id="e" x1="8.7" x2="16.725" y1="-21.6" y2="15.675" gradientUnits="userSpaceOnUse" xlink:href="#c"/>
  <linearGradient id="d" x1="20.6" x2="32" y1="-10.075" y2="10.325" gradientUnits="userSpaceOnUse" xlink:href="#c"/>
 </defs>
 <g transform="matrix(2.6029 0 0 2.6029 .93561 -2.1809)" fill-rule="evenodd">
  <g transform="matrix(.1 0 0 .099999 2.5021 42.438)">
   <path d="m110.84-352.31c1.3026 8.1009-9.1431 3.1926-14 4.4876l-48.969-0.23758-36.125 339.69h133.19c4.9971-3.4906 3.7449 7.3937 3.75 12 0.00649 7.9598 1.0898 16.16-3.8262 23.021-1.9564 4.0099-6.8361-8.2558-6.2914-11.988-1.3405-4.7957 3.1052-15.577-5.3824-12.979l-121.16 0.54021 3.3438 33.156h123.94c2.5212-3.8226 6.1221 6.3563 8.9222 2.1709-4.065-6.28 9.5051-1.691 13.421-3.0519l142.66 0.53726v-43.406h138.91l-50.094-339.09h-53.156c-1.6546-11.991-3.3349-23.979-5-35.969h-80.531c0.30991 11.781 0.64829 23.562 0.9375 35.344h-60.344c-0.22292-11.781-0.41514-23.563-0.625-35.344h-80.562l-3 31.125zm208.62 387.69h118.69l5.0312-33.156c-40.917-0.1875-81.833-0.375-122.75-0.5625l-0.96875 33.719zm-180.22 3.1875c0.15968 0.08515 0.02959-0.36068 0 0z" opacity=".125"/>
   <path d="m109.44-352.44c0.14522 6.5926-10.097 1.6916-14.594 3.1665l-48.25-0.22904-36.438 342.56h134.78c4.021-2.523 1.709 9.5513 2.3125 13.562 0.20041 6.7198 0.60534 13.485-3.4688 19.25-5.6405-7.4812-3.3921-16.953-4.1875-25.656-43.042 0.1875-86.083 0.375-129.12 0.5625l3.6562 36.031h126.62c3.9327-2.1999 12.019-0.2747 17.562-0.8833l147.44 0.5708v-43.438h139.12l-50.531-341.97h-53.125c-1.6917-11.986-3.3293-23.98-5-35.969h-83.25c0.31156 11.781 0.63185 23.562 0.9375 35.344h-57.469c-0.20963-11.781-0.41648-23.562-0.625-35.344h-83.25c-1.0417 10.812-2.0833 21.625-3.125 32.438zm208.53 389.25h121.41l5.4688-36.031-125.81-0.5625-1.0625 36.594z" opacity=".125"/>
   <path d="m108-352.56c-2.3668 4.3326-11.873 0.73585-17.125 1.8601l-45.594-0.23514-36.719 345.41h136.38c3.4063-1.4056-0.31863 9.0151 0.90625 13.375 0.27629 3.6464 0.44748 18.213-3.4507 12.418-2.031-6.7647-0.72385-14.378-1.4243-21.481l-132.09 0.625 3.9375 38.812h129.34c3.8055-2.2278 11.773-0.24869 17.156-0.87993l147.84 0.56743v-43.438h139.34l-50.906-344.78h-53.156c-1.6449-11.993-3.3368-23.979-5-35.969h-85.906c0.29262 11.781 0.65937 23.561 0.90625 35.344h-54.594c-0.26822-11.78-0.42901-23.563-0.65625-35.344h-85.938l-3.25 33.719zm208.53 390.78h124.06l5.9062-38.812-128.84-0.625-1.125 39.438z" opacity=".125"/>
   <path d="m106.59-352.72c-3.0938 1.5234-8.7729 0.17639-12.861 0.59489l-49.701-0.25114-37.031 348.28h137.41c-0.39045 7.9222 0.78678 16.187-0.59522 23.892-1.8588-3.0224-0.59177-8.6624-1.1624-12.692-0.97273-3.5682 2.2304-11.451-3.845-9.7469l-131.49 0.60847 4.2188 41.688h132.06c1.5298-2.3551 7.5725-0.17115 10.719-0.89946l154.28 0.58696v-43.438h139.56l-51.344-347.66h-53.125c-1.6804-11.988-3.331-23.98-5-35.969h-88.625c0.29533 11.781 0.64373 23.562 0.90625 35.344h-51.719c-0.25571-11.78-0.43109-23.563-0.65625-35.344h-88.625l-3.375 35zm39.906 347.69c0.7722 4.2112-4.4523-0.80102 0 0zm168.56 44.688h126.75l6.3438-41.688-131.91-0.625-1.1875 42.312z" opacity=".125"/>
   <path d="m108.59-388.5-3.375 35-62.5-0.3125c-12.416 117.05-24.918 234.1-37.312 351.16 1.5219 6.3589 1.5797 14.338 2.5394 21.319 0.75629 7.4771 1.5237 14.953 2.2731 22.431h134.81c1.8281-2.287 8.0073-0.20619 11.428-0.89402l153.57 0.58152v-43.438c5.814-1.7879 4.9757 2.8906 4.5789 7.14-0.35267 12.203-0.67827 24.407-1.0476 36.61h129.5c2.1566-14.778 4.7601-30.141 6.6562-44.562-17.219-116.57-34.435-233.15-51.656-349.72h-53.125c-1.669-11.989-3.3196-23.981-5-35.969h-91.344c0.26238 11.782 0.61103 23.562 0.90625 35.344h-48.844c-0.22502-11.781-0.40072-23.564-0.65625-35.344h-91.344l-0.0625 0.65625z" opacity=".125"/>
   <path d="m107.19-388.66-3.25 33.719c-20.833-0.10081-41.667-0.22836-62.5-0.3125-12.498 117.99-25.13 236.14-37.625 354.03 2.1078 4.9305 1.5316 12.832 2.6088 18.903 0.83537 8.2828 1.6965 16.563 2.5162 24.847h137.53c4.137-2.1596 12.303-0.27429 18-0.86842 49 0.18256 98 0.38715 147 0.55592v-43.438c4.1464 2.0848 0.41041 11.83 1.3891 16.993-0.25442 8.919-0.51126 17.838-0.76412 26.757h132.19c2.344-15.702 5.0138-32.546 7.2188-47.406-2.5134-8.1182-2.9405-18.653-4.6529-27.7-15.858-107.35-31.693-214.7-47.566-322.05h-53.094c-1.6629-11.99-3.3555-23.976-5-35.969h-94.062c0.2472 11.782 0.61341 23.562 0.90625 35.344h-45.969c-0.22718-11.781-0.38809-23.564-0.65625-35.344h-94.031l-0.09632 0.99535-0.09118 0.94215z" opacity=".125"/>
   <path d="m105.75-388.78-3.125 32.406c-20.823-0.10941-41.646-0.17673-62.469-0.3125-12.42 116.79-24.833 233.58-37.25 350.38-1.4569 5.432 1.3622 10.026 1.293 16.449 1.1576 11.267 2.2675 22.538 3.457 33.801h140.22c4.137-2.1595 12.303-0.27388 18-0.86781 55.831 0.25349 112.08 0.2963 167.44 0.86781h112.19c2.2346-14.581 4.4349-29.167 6.6562-43.75 2.3479-4.1806-1.1399-9.5192-1.2841-15.403-16.777-113.61-33.581-227.21-50.341-340.82h-53.125c-1.6706-11.989-3.3084-23.983-5-35.969h-96.75c0.30565 11.781 0.62594 23.562 0.9375 35.344h-43.156c-0.20851-11.781-0.41538-23.563-0.625-35.344h-96.75l-0.3125 3.2188z" opacity=".125"/>
   <path d="m104.34-388.91-3 31.094c-20.823-0.10685-41.646-0.19038-62.469-0.3125-12.397 116.8-24.837 233.6-37.25 350.41-1.4939 4.7177-0.19891 9.4464 0.81551 14.318 1.2968 12.926 2.6348 25.847 3.9032 38.775h142.97c4.1968-2.0897 12.295-0.26341 18-0.83939 54.69 0.23995 109.78 0.26706 164 0.83939h115.41c2.2389-14.58 4.4346-29.167 6.6562-43.75 2.8151-3.3461 0.20023-9.735-0.6994-14.29-16.973-114.93-33.965-229.87-50.926-344.8h-53.094c-1.6653-11.99-3.3451-23.978-5-35.969h-99.469c0.28914 11.782 0.62765 23.562 0.9375 35.344h-40.281c-0.21001-11.781-0.40185-23.563-0.625-35.344h-99.438l-0.4375 4.5312z" opacity=".125"/>
  </g>
  <path d="m5.4003 5.5305-3.723 34.97h13.873l1.4726-34.895-11.622-0.075z" fill="url(#k)" stroke="#000"/>
  <path d="m29.756 5.5305 2.3896 34.97h-16.423l1.3578-34.97h12.676z" fill="url(#j)" stroke="#000"/>
  <path d="m40.825 5.6055 5.148 34.895h-13.798l-2.1476-34.895h10.797z" fill="url(#i)" stroke="#000"/>
  <path d="m12 2h9l0.375 21.075-11.375-0.08286 2-20.992z"/>
  <path d="m26,2h9l3,21h-11.525l-.475-21z"/>
  <path d="m10.575,26.975 10.35.01819 .45-4.08972-11.375.0152 .575,4.05633z" fill="#3a3a3a"/>
  <path d="m26.75 27.009 10.42-0.03424 0.82464-4.075h-11.52l0.27491 4.1092z" fill="#3a3a3a"/>
  <path d="m1.7777 44.884-0.04799-4.3092 13.648-0.075 0.12258 4.3759-13.722 0.00828z" fill="url(#h)" stroke="#000"/>
  <path d="m32.008 44.856-0.01044-4.4564h-16.573l0.00783 4.3814 16.576 0.075z" fill="url(#g)" stroke="#000"/>
  <path d="m45.322 44.884 0.64799-4.3092-13.348-0.075-0.12258 4.3759 12.822 0.00828z" fill="url(#f)" stroke="#000"/>
  <path d="m12 2h9l0.375 21.075-11.375-0.08286 2-20.992z" fill="url(#e)"/>
  <path d="m26,2h9l3,21h-11.525l-.475-21z" fill="url(#d)"/>
 </g>
</svg>
